<?xml version="1.0" standalone="no"?>
<!DOCTYPE svg PUBLIC "-//W3C//DTD SVG 20010904//EN"
 "http://www.w3.org/TR/2001/REC-SVG-20010904/DTD/svg10.dtd">
<svg version="1.0" xmlns="http://www.w3.org/2000/svg"
 width="106.000000pt" height="106.000000pt" viewBox="0 0 106.000000 106.000000"
 preserveAspectRatio="xMidYMid meet">
<metadata>
Created by potrace 1.14, written by Peter Selinger 2001-2017
</metadata>
<g transform="translate(0.000000,106.000000) scale(0.100000,-0.100000)"
fill="#000000" stroke="none">
<path d="M678 563 c2 -60 5 -114 7 -121 3 -9 19 -4 57 17 29 17 54 35 56 40 4
13 -104 171 -117 171 -3 0 -5 -48 -3 -107z"/>
<path d="M596 468 c-36 -56 -39 -73 -20 -109 l19 -34 3 30 c2 17 7 54 11 83 4
28 7 52 5 52 -2 0 -10 -10 -18 -22z"/>
<path d="M360 395 c0 -16 6 -25 15 -25 8 0 15 -8 15 -17 0 -13 8 -9 30 17 16
19 30 38 30 43 0 4 -20 7 -45 7 -41 0 -45 -2 -45 -25z"/>
<path d="M790 390 c-8 -5 -25 -10 -38 -10 -24 0 -69 -42 -92 -85 -10 -19 -10
-30 0 -54 7 -17 18 -31 25 -31 7 0 38 27 69 60 50 54 58 59 77 50 31 -17 35
-5 13 37 -21 41 -32 47 -54 33z"/>
</g>
</svg>
